# AST/ASF file generated using VICON BodyLanguage
# -----------------------------------------------
:version 1.10
:name VICON
:units
  mass 1.0
  length 0.45
  angle deg
:documentation
   .ast/.asf automatically generated from VICON data using
   VICON BodyBuilder and BodyLanguage model FoxedUp or BRILLIANT.MOD
:root
   order TX TY TZ RX RY RZ
   axis XYZ
   position 0 0 0  
   orientation 0 0 0 
:bonedata
  begin
     id 1 
     name lhipjoint
     direction 0.64773 -0.699417 0.302095 
     length 2.48597 
     axis 0 0 0  XYZ
  end
  begin
     id 2 
     name lfemur
     direction 0.34202 -0.939693 0  
     length 6.71947  
     axis 0 0 20  XYZ
    dof rx ry rz
    limits (-160.0 20.0)
           (-70.0 70.0)
           (-60.0 70.0)
  end
  begin
     id 3 
     name ltibia
     direction 0.34202 -0.939693 0   
     length 8.08777   
     axis 0 0 20   XYZ
    dof rx
    limits (-10.0 170.0)
  end
  begin
     id 4 
     name lfoot
     direction 0.0808503 -0.222134 0.971658   
     length 2.08264   
     axis -90 7.62852e-016 20   XYZ
    dof rx rz
    limits (-45.0 90.0)
           (-70.0 20.0)
  end
  begin
     id 5 
     name ltoes
     direction 1.53502e-011 -4.22007e-011 1   
     length 1.04662   
     axis -90 7.62852e-016 20   XYZ
    dof rx
    limits (-90.0 20.0)
  end
  begin
     id 6 
     name rhipjoint
     direction -0.610924 -0.726792 0.313919   
     length 2.39233  
     axis 0 0 0  XYZ 
  end
  begin
     id 7 
     name rfemur
     direction -0.34202 -0.939693 0   
     length 6.96955   
     axis 0 0 -20   XYZ
    dof rx ry rz
    limits (-160.0 20.0)
           (-70.0 70.0)
           (-70.0 60.0)
  end
  begin
     id 8 
     name rtibia
     direction -0.34202 -0.939693 0   
     length 8.19584   
     axis 0 0 -20   XYZ
    dof rx
    limits (-10.0 170.0)
 end
 begin
     id 9 
     name rfoot
     direction -0.077777 -0.213691 0.9738   
     length 2.07539  
     axis -90 -7.62852e-016 -20   XYZ
    dof rx rz
    limits (-45.0 90.0)
           (-20.0 70.0)
  end
  begin
     id 10 
     name rtoes
     direction -1.53558e-011 -4.22006e-011 1   
     length 1.04381   
     axis -90 -7.62852e-016 -20   XYZ
    dof rx
    limits (-90.0 20.0)
  end
  begin
     id 11 
     name lowerback
     direction -0.00971646 0.996074 0.0879841   
     length 1.67643   
     axis 0 0 0   XYZ
    dof rx ry rz
    limits (-20.0 45.0)
           (-30.0 30.0)
           (-30.0 30.0)
  end
  begin
     id 12 
     name upperback
     direction 0.0127391 0.991676 0.128127   
     length 1.63741   
     axis 0 0 0   XYZ
    dof rx ry rz
    limits (-20.0 45.0)
           (-30.0 30.0)
           (-30.0 30.0)
  end
  begin
     id 13 
     name thorax
     direction 0.0167583 0.996049 0.0872067   
     length 1.65931   
     axis 0 0 0   XYZ
    dof rx ry rz
    limits (-20.0 45.0)
           (-30.0 30.0)
           (-30.0 30.0)
  end
  begin
     id 14 
     name lowerneck
     direction -0.0317829 0.998312 0.0486079   
     length 1.79021   
     axis 0 0 0   XYZ
    dof rx ry rz
    limits (-20.0 45.0)
           (-30.0 30.0)
           (-30.0 30.0)
  end
  begin
     id 15 
     name upperneck
     direction 0.0896851 0.972452 -0.215159   
     length 1.78797   
     axis 0 0 0   XYZ
    dof rx ry rz
    limits (-20.0 45.0)
           (-30.0 30.0)
           (-30.0 30.0)
  end
  begin
     id 16
     name head
     direction 0.0310949 0.996503 -0.0775582  
     length 1.81549  
     axis 0 0 0   XYZ
    dof rx ry rz
    limits (-20.0 45.0)
           (-30.0 30.0)
           (-30.0 30.0)
  end
  begin
     id 17 
     name lclavicle
     direction 0.853638 0.502051 -0.138733  
     length 3.31627  
     axis 0 0 0   XYZ
    dof ry rz
    limits (-20.0 10.0)
           (0.0 20.0)
  end
  begin
     id 18 
     name lhumerus
     direction 1 -4.48962e-011 -1.41788e-018   
     length 5.54893   
     axis 180 -30 -90   XYZ
    dof rx ry rz
    limits (-60.0 90.0)
           (-90.0 90.0)
           (-90.0 90.0)
  end
  begin
     id 19
     name lradius
     direction 1 -4.48962e-011 -4.95754e-027   
     length 3.02898   
     axis 180 -30 -90   XYZ
    dof rx
    limits (-10.0 170.0)
  end
  begin
     id 20
     name lwrist
     direction 1 -4.48952e-011 -1.03764e-026   
     length 1.51449   
     axis 9.09556e-015 90 90   XYZ
    dof ry
    limits (-180.0 0.0)
 end
  begin
     id 21 
     name lhand
     direction 1 -4.4902e-011 -2.07528e-026   
     length 0.640951   
     axis 1.3242e-014 90 90   XYZ
    dof rx rz
    limits (-90.0 90.0)
           (-45.0 45.0)
  end
  begin
     id 22 
     name lfingers
     direction 1 -4.49014e-011 -4.15056e-026   
     length 0.516751   
     axis 2.64841e-014 90 90   XYZ
    dof rx
    limits (0.0 90.0)
  end
  begin
     id 23
     name lthumb
     direction 0.707107 -6.35008e-011 0.707107   
     length 0.741954   
     axis -90 45 2.85299e-015   XYZ
    dof rx rz
    limits (-45.0 45.0)
           (-45.0 45.0)
  end
  begin
     id 24 
     name rclavicle
     direction -0.888531 0.455324 -0.0565039   
     length 3.20126  
     axis 0 0 0   XYZ 
    dof ry rz
    limits (-10.0 20.0)
           (-20.0 0.0)
  end
  begin
     id 25 
     name rhumerus
     direction -1 -4.48946e-011 -8.98298e-028  
     length 5.3519   
     axis 180 30 90   XYZ
    dof rx ry rz
    limits (-90.0 60.0)
           (-90.0 90.0)
           (-90.0 90.0)
  end
  begin
     id 26 
     name rradius
     direction -1 -4.4899e-011 -3.18779e-027   
     length 3.02531   
     axis 180 30 90   XYZ
    dof rx
    limits (-10.0 170.0)
  end
  begin
     id 27 
     name rwrist
     direction -1 -4.4897e-011 -1.03764e-026   
     length 1.51266   
     axis 9.09556e-015 -90 -90   XYZ
    dof ry
    limits (-180.0 0.0)
  end
  begin
     id 28
     name rhand
     direction -1 -4.48941e-011 -2.07528e-026   
     length 0.78389   
     axis 1.3242e-014 -90 -90   XYZ
    dof rx rz
    limits (-90.0 90.0)
           (-45.0 45.0)
  end
  begin
     id 29
     name rfingers
     direction -1 -4.49012e-011 -4.15056e-026   
     length 0.631992   
     axis 2.64841e-014 -90 -90   XYZ
    dof rx
    limits (0.0 90.0)
  end
  begin
     id 30
     name rthumb
     direction -0.707107 -6.3496e-011 0.707107   
     length 0.907418   
     axis -90 -45 -2.85299e-015   XYZ
    dof rx rz
    limits (-45.0 45.0)
           (-45.0 45.0)
  end
:hierarchy
  begin
    root lhipjoint rhipjoint lowerback
    lhipjoint lfemur
    lfemur ltibia
    ltibia lfoot
    lfoot ltoes
    rhipjoint rfemur
    rfemur rtibia
    rtibia rfoot
    rfoot rtoes
    lowerback upperback
    upperback thorax
    thorax lowerneck lclavicle rclavicle
    lowerneck upperneck
    upperneck head
    lclavicle lhumerus
    lhumerus lradius
    lradius lwrist
    lwrist lhand lthumb
    lhand lfingers
    rclavicle rhumerus
    rhumerus rradius
    rradius rwrist
    rwrist rhand rthumb
    rhand rfingers
  end

#!OML:ASF E:\Style3\Style3.ASF
:FULLY-SPECIFIED
:DEGREES
406
root -0.774494 17.9145 0.522819 -39.3932 88.0155 -56.0645
lowerback -7.29407 -1.86165 -1.99527
upperback -10.5786 -1.85093 1.67978
thorax -6.88545 -0.486074 2.82898
lowerneck -16.5911 -2.73219 -5.31109
upperneck 22.6681 -4.84214 10.7987
head 10.4043 -1.29974 4.11059
rclavicle -1.83286e-014 -7.57867e-016
rhumerus 43.1342 42.5747 -22.3659
rradius 93.6885
rwrist -59.0093
rhand -13.7631 17.023
rfingers 7.12502
rthumb 12.3575 -12.5918
lclavicle -1.83286e-014 -7.57867e-016
lhumerus 31.7111 -51.1175 28.7236
lradius 118.992
lwrist 59.0279
lhand 14.2078 16.5248
lfingers 7.12502
lthumb 39.1054 42.0146
rfemur -18.8877 12.3114 16.5595
rtibia 12.8628
rfoot -9.94825 -18.1793
rtoes -17.2112
lfemur 0 0 0
ltibia 0
lfoot 0 0
ltoes 0
407
root -0.771523 17.912 0.52315 -41.7034 88.0174 -58.3685
lowerback -7.27117 -1.84302 -1.91724
upperback -10.5501 -1.83159 1.65879
thorax -6.87075 -0.484563 2.76363
lowerneck -16.6773 -2.74685 -5.302
upperneck 22.704 -4.87408 10.8315
head 10.4381 -1.30622 4.11799
rclavicle -2.01751e-014 3.68994e-015
rhumerus 42.1502 41.3887 -23.9974
rradius 94.5227
rwrist -59.3554
rhand -14.3836 17.481
rfingers 7.12502
rthumb 11.7592 -12.1689
lclavicle -2.01751e-014 3.68994e-015
lhumerus 32.6624 -52.5369 27.5213
lradius 119.187
lwrist 54.6338
lhand 13.8222 16.8534
lfingers 7.12502
lthumb 38.7419 42.4468
rfemur -18.8321 12.3217 16.6087
rtibia 12.8242
rfoot -9.97816 -18.2132
rtoes -17.5546
lfemur 0 0 0
ltibia 0
lfoot 0 0
ltoes 0
408
root -0.768322 17.9147 0.523556 -43.48 88.0787 -60.1909
lowerback -7.18285 -1.86004 -1.95801
upperback -10.6103 -1.8501 1.67738
thorax -6.98439 -0.485709 2.8093
lowerneck -16.7118 -2.75114 -5.3015
upperneck 22.7659 -4.87449 10.7941
head 10.4661 -1.30811 4.10632
rclavicle 1.20172e-014 2.90723e-015
rhumerus 41.302 40.326 -25.5046
rradius 95.4462
rwrist -59.7136
rhand -15.0626 17.893
rfingers 7.12502
rthumb 11.1043 -11.7933
lclavicle 1.20172e-014 2.90723e-015
lhumerus 33.698 -53.9747 26.289
lradius 119.247
lwrist 50.2627
lhand 14.0744 15.8775
lfingers 7.12502
lthumb 38.9797 41.4033
rfemur -18.8427 12.3699 16.5751
rtibia 12.7935
rfoot -10.0093 -18.3044
rtoes -17.3531
lfemur 0 0 0
ltibia 0
lfoot 0 0
ltoes 0
409
root -0.764126 17.9176 0.523466 -45.4124 88.1541 -62.1831
lowerback -7.05377 -1.87871 -1.98298
upperback -10.7232 -1.86843 1.69037
thorax -7.18001 -0.484442 2.84247
lowerneck -16.6601 -2.77312 -5.35751
upperneck 22.8322 -4.89131 10.7794
head 10.4825 -1.3216 4.11054
rclavicle -2.14625e-014 -2.78299e-015
rhumerus 40.5236 39.3906 -26.9318
rradius 96.4902
rwrist -60.0088
rhand -15.5855 18.3069
rfingers 7.12502
rthumb 10.6 -11.4057
lclavicle -2.14625e-014 -2.78299e-015
lhumerus 34.5595 -55.4326 25.2092
lradius 119.141
lwrist 45.5405
lhand 14.071 14.7942
lfingers 7.12502
lthumb 38.9765 40.3209
rfemur -18.8567 12.2884 16.5508
rtibia 12.7656
rfoot -10.0366 -18.3211
rtoes -17.2792
lfemur 0 0 0
ltibia 0
lfoot 0 0
ltoes 0
410
root -0.763046 17.9148 0.523495 -49.7741 88.1453 -66.5469
lowerback -6.97851 -1.891 -1.89293
upperback -10.7499 -1.88455 1.7238
thorax -7.25271 -0.495439 2.82984
lowerneck -16.6398 -2.79401 -5.41165
upperneck 22.8621 -4.90471 10.7647
head 10.4914 -1.33402 4.11364
rclavicle -1.12748e-014 -2.48481e-015
rhumerus 39.958 38.4851 -28.1257
rradius 97.6721
rwrist -60.1644
rhand -15.8415 18.6709
rfingers 7.12502
rthumb 10.3531 -11.0542
lclavicle -1.12748e-014 -2.48481e-015
lhumerus 35.2844 -56.6531 24.3815
lradius 118.954
lwrist 40.5059
lhand 14.0054 14.3008
lfingers 7.12502
lthumb 38.9147 39.8452
rfemur -18.7994 12.2713 16.646
rtibia 12.7023
rfoot -10.0247 -18.3894
rtoes -17.2068
lfemur 0 0 0
ltibia 0
lfoot 0 0
ltoes 0
411
root -0.761977 17.9121 0.523776 -54.686 88.156 -71.4565
lowerback -6.95482 -1.91576 -1.83524
upperback -10.7427 -1.91826 1.7478
thorax -7.25691 -0.515661 2.82309
lowerneck -16.6113 -2.81013 -5.41378
upperneck 22.8607 -4.913 10.7059
head 10.4843 -1.346 4.09102
rclavicle -9.17515e-015 -1.41634e-015
rhumerus 39.4817 37.6642 -29.1681
rradius 98.9449
rwrist -60.2153
rhand -15.9003 18.9291
rfingers 7.12502
rthumb 10.2963 -10.7988
lclavicle -9.17515e-015 -1.41634e-015
lhumerus 36.0302 -57.6828 23.5863
lradius 118.687
lwrist 35.2651
lhand 13.8205 13.4659
lfingers 7.12502
lthumb 38.7403 39.0598
rfemur -18.725 12.2586 16.7237
rtibia 12.626
rfoot -10.0149 -18.5029
rtoes -17.1666
lfemur 0 0 0
ltibia 0
lfoot 0 0
ltoes 0
412
root -0.759316 17.9149 0.524065 -58.6468 88.2 -75.4375
lowerback -6.90803 -1.89548 -1.83575
upperback -10.7657 -1.89243 1.69632
thorax -7.31196 -0.502989 2.77107
lowerneck -16.622 -2.86525 -5.30638
upperneck 22.9108 -5.00924 10.6517
head 10.51 -1.38426 4.04061
rclavicle -1.02498e-016 -1.33186e-014
rhumerus 38.8827 36.9027 -30.1385
rradius 100.262
rwrist -60.1412
rhand -15.9999 19.1673
rfingers 7.12502
rthumb 10.2002 -10.5654
lclavicle -1.02498e-016 -1.33186e-014
lhumerus 37.1821 -58.7478 22.3621
lradius 118.349
lwrist 29.5592
lhand 12.5893 12.1608
lfingers 7.12502
lthumb 37.5779 38.0736
rfemur -18.6786 12.2782 16.7236
rtibia 12.5634
rfoot -10.0568 -18.6146
rtoes -16.7333
lfemur 0 0 0
ltibia 0
lfoot 0 0
ltoes 0
413
root -0.754336 17.917 0.527831 -62.3387 88.209 -79.1567
lowerback -6.91245 -1.82141 -1.84037
upperback -10.7862 -1.79461 1.60309
thorax -7.34054 -0.455913 2.67628
lowerneck -16.5815 -2.96662 -5.20819
upperneck 22.9075 -5.18339 10.6713
head 10.5163 -1.4522 4.00613
rclavicle -6.44652e-015 -8.10048e-015
rhumerus 38.1499 36.1678 -31.0961
rradius 101.542
rwrist -59.9898
rhand -15.7589 19.6339
rfingers 7.12502
rthumb 10.4327 -10.0873
lclavicle -6.44652e-015 -8.10048e-015
lhumerus 38.6727 -59.7828 20.9189
lradius 117.906
lwrist 23.3668
lhand 10.9452 11.0712
lfingers 7.12502
lthumb 36.0223 37.3822
rfemur -18.6259 12.3825 16.739
rtibia 12.4809
rfoot -10.0786 -18.7918
rtoes -16.5789
lfemur 0 0 0
ltibia 0
lfoot 0 0
ltoes 0
414
root -0.750165 17.9167 0.532598 -66.1011 88.191 -82.9445
lowerback -6.95139 -1.83959 -1.85455
upperback -10.778 -1.81652 1.62064
thorax -7.30714 -0.46533 2.70126
lowerneck -16.6314 -2.97338 -5.20227
upperneck 22.9455 -5.19229 10.6554
head 10.5401 -1.45522 3.99927
rclavicle 1.58624e-014 -2.48481e-015
rhumerus 37.8467 35.646 -31.717
rradius 102.857
rwrist -59.8543
rhand -15.4055 20.0959
rfingers 7.12502
rthumb 10.7736 -9.60778
lclavicle 1.58624e-014 -2.48481e-015
lhumerus 39.3755 -60.5188 20.1889
lradius 117.387
lwrist 16.9469
lhand 9.46469 9.8659
lfingers 7.12502
lthumb 34.6184 36.5102
rfemur -18.5842 12.3962 16.8023
rtibia 12.4097
rfoot -10.0945 -18.9152
rtoes -16.4774
lfemur 0 0 0
ltibia 0
lfoot 0 0
ltoes 0
